<svg version="1.1" xmlns="http://www.w3.org/2000/svg" viewBox="0 0 1830.2999877929688 814" width="3660.5999755859375" height="1628">
  <!-- svg-source:excalidraw -->

  <defs>
    <style class="style-fonts">
      @font-face {
      font-family: "Virgil";
      src: url("https://excalidraw.com/Virgil.woff2");
      }
      @font-face {
      font-family: "Cascadia";
      src: url("https://excalidraw.com/Cascadia.woff2");
      }
    </style>

  </defs>
  <rect x="0" y="0" width="1830.2999877929688" height="814" fill="#ffffff"></rect><g transform="translate(267 12) rotate(0 65.06666564941406 11.5)"><text x="0" y="0" font-family="Helvetica, Segoe UI Emoji" font-size="20px" fill="#000000" text-anchor="start" style="white-space: pre;" direction="ltr" dominant-baseline="text-before-edge">Message relay</text></g><g transform="translate(270 608) rotate(0 17.25 11.5)"><text x="0" y="0" font-family="Helvetica, Segoe UI Emoji" font-size="20px" fill="#000000" text-anchor="start" style="white-space: pre;" direction="ltr" dominant-baseline="text-before-edge">Fee</text></g><g transform="translate(1027 10) rotate(0 53.93333435058594 11.5)"><text x="0" y="0" font-family="Helvetica, Segoe UI Emoji" font-size="20px" fill="#000000" text-anchor="start" style="white-space: pre;" direction="ltr" dominant-baseline="text-before-edge">Oracle relay</text></g><g transform="translate(1081 98) rotate(0 114.53333282470697 11.5)"><text x="0" y="0" font-family="Helvetica, Segoe UI Emoji" font-size="20px" fill="#000000" text-anchor="start" style="white-space: pre;" direction="ltr" dominant-baseline="text-before-edge">emit Assigned(msgHash);</text></g><g stroke-linecap="round"><g transform="translate(1102 41) rotate(0 1.7050954174250705 26.660894523933532)"><path d="M-0.56 -0.63 C0.13 8.24, 3.5 45.13, 3.97 53.95 M1.34 1.66 C1.97 10.14, 3.56 43.72, 3.54 52.33" stroke="#000000" stroke-width="1" fill="none"></path></g><g transform="translate(1102 41) rotate(0 1.7050954174250705 26.660894523933532)"><path d="M-7.24 29.25 C-1.67 33.59, -1.62 40.78, 2.56 53.32 M-7.13 27.94 C-3.33 36.91, 1.72 46.11, 4.2 52.83" stroke="#000000" stroke-width="1" fill="none"></path></g><g transform="translate(1102 41) rotate(0 1.7050954174250705 26.660894523933532)"><path d="M10.91 28.78 C11.28 33.16, 6.15 40.49, 2.56 53.32 M11.02 27.47 C7.69 36.78, 5.61 46.16, 4.2 52.83" stroke="#000000" stroke-width="1" fill="none"></path></g></g><mask></mask><g transform="translate(1046 167) rotate(0 387.1499938964844 11.5)"><text x="0" y="0" font-family="Helvetica, Segoe UI Emoji" font-size="20px" fill="#000000" text-anchor="start" style="white-space: pre;" direction="ltr" dominant-baseline="text-before-edge">event MessageAccepted(bytes32 indexed msgHash, bytes32 root, Message message);</text></g><g stroke-linecap="round"><g transform="translate(1056.9433122352398 40) rotate(0 5.072939245247369 60.79564911779016)"><path d="M1.1 0.68 C2.53 20.83, 6.33 101.59, 7.64 121.59 M0.22 0 C2.12 19.72, 8.56 99.47, 9.93 119.78" stroke="#000000" stroke-width="1" fill="none"></path></g><g transform="translate(1056.9433122352398 40) rotate(0 5.072939245247369 60.79564911779016)"><path d="M-1.28 91.1 C1.44 99.17, 2.69 103.4, 8.08 120.52 M-2.36 92.05 C3.19 102.64, 8.34 113.62, 9.67 120.76" stroke="#000000" stroke-width="1" fill="none"></path></g><g transform="translate(1056.9433122352398 40) rotate(0 5.072939245247369 60.79564911779016)"><path d="M19.18 89.56 C17.43 98.15, 14.21 102.72, 8.08 120.52 M18.11 90.51 C15.64 101.54, 12.77 113.12, 9.67 120.76" stroke="#000000" stroke-width="1" fill="none"></path></g></g><mask></mask><g transform="translate(1026 257) rotate(0 116.78333282470697 11.5)"><text x="0" y="0" font-family="Helvetica, Segoe UI Emoji" font-size="20px" fill="#000000" text-anchor="start" style="white-space: pre;" direction="ltr" dominant-baseline="text-before-edge">wait source chain finalized</text></g><g stroke-linecap="round"><g transform="translate(1071.0365416259374 197) rotate(0 0.6894239954032741 27.320168779157115)"><path d="M0.6 -1.11 C1.03 8.06, 1.73 44.79, 1.92 54.14 M-0.55 0.92 C-0.15 10.39, 1.05 47.04, 1.36 55.75" stroke="#000000" stroke-width="1" fill="none"></path></g><g transform="translate(1071.0365416259374 197) rotate(0 0.6894239954032741 27.320168779157115)"><path d="M-10.59 31.91 C-6.22 37.77, -2.33 41.24, -0.63 57.45 M-9.32 31.7 C-5.82 39.02, -3.14 46.81, 0.66 55" stroke="#000000" stroke-width="1" fill="none"></path></g><g transform="translate(1071.0365416259374 197) rotate(0 0.6894239954032741 27.320168779157115)"><path d="M7.88 31.28 C7.71 37.39, 7.08 41.01, -0.63 57.45 M9.14 31.07 C6.44 38.6, 2.91 46.61, 0.66 55" stroke="#000000" stroke-width="1" fill="none"></path></g></g><mask></mask><g stroke-linecap="round"><g transform="translate(1117.1570608973734 124) rotate(0 -1.6784063125659259 62.03890382779761)"><path d="M-0.9 0.75 C-1.3 21.38, -2.71 102.43, -3.23 122.98 M0.83 0.1 C0.35 20.92, -3.78 103.11, -4.18 123.98" stroke="#000000" stroke-width="1" fill="none"></path></g><g transform="translate(1117.1570608973734 124) rotate(0 -1.6784063125659259 62.03890382779761)"><path d="M-12.16 95.43 C-13.2 100.66, -9.36 106.84, -5.52 122.22 M-13.02 96.33 C-12.67 100.94, -9.15 107.92, -3.2 124.79" stroke="#000000" stroke-width="1" fill="none"></path></g><g transform="translate(1117.1570608973734 124) rotate(0 -1.6784063125659259 62.03890382779761)"><path d="M8.34 96.18 C2.63 101.08, 1.79 107.1, -5.52 122.22 M7.48 97.08 C3.46 101.4, 2.61 108.22, -3.2 124.79" stroke="#000000" stroke-width="1" fill="none"></path></g></g><mask></mask><g transform="translate(1012 357) rotate(0 134.60000610351557 11.5)"><text x="0" y="0" font-family="Helvetica, Segoe UI Emoji" font-size="20px" fill="#000000" text-anchor="start" style="white-space: pre;" direction="ltr" dominant-baseline="text-before-edge">function requestFinalizedHash</text></g><g stroke-linecap="round"><g transform="translate(1100 287) rotate(0 -0.8427544843405599 29.92143098968083)"><path d="M0.51 -0.85 C0 8.92, -2.14 49.37, -2.2 59.45 M-0.68 1.32 C-0.92 11.17, -0.23 50.79, -0.12 60.69" stroke="#000000" stroke-width="1" fill="none"></path></g><g transform="translate(1100 287) rotate(0 -0.8427544843405599 29.92143098968083)"><path d="M-12.19 30.65 C-7.51 45.04, -3.22 54.3, -0.96 61.12 M-11.71 31.96 C-9.03 39.2, -5.3 46.27, 0.08 60.02" stroke="#000000" stroke-width="1" fill="none"></path></g><g transform="translate(1100 287) rotate(0 -0.8427544843405599 29.92143098968083)"><path d="M8.33 30.36 C5.33 44.94, 1.94 54.31, -0.96 61.12 M8.81 31.67 C6.14 39.13, 4.52 46.27, 0.08 60.02" stroke="#000000" stroke-width="1" fill="none"></path></g></g><mask></mask><g transform="translate(1017 447) rotate(0 243.64999389648432 11.5)"><text x="0" y="0" font-family="Helvetica, Segoe UI Emoji" font-size="20px" fill="#000000" text-anchor="start" style="white-space: pre;" direction="ltr" dominant-baseline="text-before-edge">emit AirnodeRrpCompleted(beaconId, requestId, data);</text></g><g stroke-linecap="round"><g transform="translate(1100 387) rotate(0 -1.324517108127452 29.7987878604047)"><path d="M0.2 0.32 C-0.24 10.06, -2.53 48.82, -2.85 58.75 M-1.16 -0.56 C-1.2 9.34, -0.39 50.39, -0.58 60.16" stroke="#000000" stroke-width="1" fill="none"></path></g><g transform="translate(1100 387) rotate(0 -1.324517108127452 29.7987878604047)"><path d="M-10.23 31.04 C-8.23 40.76, -3.44 49.37, 0.65 60.55 M-10.38 33 C-7.81 39.17, -6.29 45.38, -0.54 59.91" stroke="#000000" stroke-width="1" fill="none"></path></g><g transform="translate(1100 387) rotate(0 -1.324517108127452 29.7987878604047)"><path d="M9.96 30.98 C6.26 40.75, 5.36 49.37, 0.65 60.55 M9.81 32.93 C7.66 38.99, 4.46 45.22, -0.54 59.91" stroke="#000000" stroke-width="1" fill="none"></path></g></g><mask></mask><g transform="translate(1027 546) rotate(0 121.84999847412104 11.5)"><text x="0" y="0" font-family="Helvetica, Segoe UI Emoji" font-size="20px" fill="#000000" text-anchor="start" style="white-space: pre;" direction="ltr" dominant-baseline="text-before-edge">function aggregateBeacons</text></g><g stroke-linecap="round"><g transform="translate(1094 476) rotate(0 1.7475961824134174 29.768996898941708)"><path d="M0.32 -0.96 C1.26 8.9, 3.77 49.19, 4.47 59.32 M-0.97 1.15 C-0.04 11.14, 2.93 50.51, 3.76 60.5" stroke="#000000" stroke-width="1" fill="none"></path></g><g transform="translate(1094 476) rotate(0 1.7475961824134174 29.768996898941708)"><path d="M-10.29 33.98 C-7.3 39.51, -3.95 45.42, 4.67 61.45 M-9.56 33.67 C-5.21 39.78, -1.51 48.69, 3.69 60.59" stroke="#000000" stroke-width="1" fill="none"></path></g><g transform="translate(1094 476) rotate(0 1.7475961824134174 29.768996898941708)"><path d="M10.17 32.36 C9.07 38.26, 8.32 44.5, 4.67 61.45 M10.9 32.05 C9.76 38.39, 7.97 47.73, 3.69 60.59" stroke="#000000" stroke-width="1" fill="none"></path></g></g><mask></mask><g transform="translate(1116 503) rotate(0 22.533332824706974 11.5)"><text x="0" y="0" font-family="Helvetica, Segoe UI Emoji" font-size="20px" fill="#000000" text-anchor="start" style="white-space: pre;" direction="ltr" dominant-baseline="text-before-edge">&gt; 2/3</text></g><g transform="translate(1031 660) rotate(0 147.94999694824213 11.5)"><text x="0" y="0" font-family="Helvetica, Segoe UI Emoji" font-size="20px" fill="#000000" text-anchor="start" style="white-space: pre;" direction="ltr" dominant-baseline="text-before-edge">emit AggregatedBlockData(data);</text></g><g stroke-linecap="round"><g transform="translate(1099.982309457901 577) rotate(0 0.9364703907251624 38.87639385390099)"><path d="M-0.83 -1.2 C-0.39 11.97, 2 64.39, 2.7 77.96 M0.94 0.79 C1.18 14.16, 1.26 66, 1.58 78.95" stroke="#000000" stroke-width="1" fill="none"></path></g><g transform="translate(1099.982309457901 577) rotate(0 0.9364703907251624 38.87639385390099)"><path d="M-11.01 50.32 C-7.74 60.16, -0.77 67.43, 2.75 77.76 M-8.26 51.86 C-7.18 58.53, -4.46 63.83, 2.07 78.17" stroke="#000000" stroke-width="1" fill="none"></path></g><g transform="translate(1099.982309457901 577) rotate(0 0.9364703907251624 38.87639385390099)"><path d="M9.51 50.09 C6.49 59.86, 7.18 67.2, 2.75 77.76 M12.26 51.62 C8.43 58.43, 6.22 63.79, 2.07 78.17" stroke="#000000" stroke-width="1" fill="none"></path></g></g><mask></mask><g transform="translate(1033 748) rotate(0 147.94999694824213 11.5)"><text x="0" y="0" font-family="Helvetica, Segoe UI Emoji" font-size="20px" fill="#000000" text-anchor="start" style="white-space: pre;" direction="ltr" dominant-baseline="text-before-edge">emit AggregatedBlockData(data);</text></g><g stroke-linecap="round"><g transform="translate(1109 691) rotate(0 1 22.5)"><path d="M1.19 -0.86 C1.23 6.79, 1.1 38.31, 1.21 46.06 M0.36 1.3 C0.7 8.63, 3.4 37.44, 3.51 44.49" stroke="#000000" stroke-width="1" fill="none"></path></g><g transform="translate(1109 691) rotate(0 1 22.5)"><path d="M-6.88 22.5 C-0.26 31.3, 2.42 38.25, 2.75 45.78 M-4.63 24.79 C-1.95 29.56, -0.37 35.33, 4.46 44.95" stroke="#000000" stroke-width="1" fill="none"></path></g><g transform="translate(1109 691) rotate(0 1 22.5)"><path d="M8.5 21.58 C9.27 30.88, 6.11 38.18, 2.75 45.78 M10.75 23.87 C8.93 28.76, 6 34.8, 4.46 44.95" stroke="#000000" stroke-width="1" fill="none"></path></g></g><mask></mask><g transform="translate(296 100) rotate(0 156.26666259765625 11.5)"><text x="0" y="0" font-family="Helvetica, Segoe UI Emoji" font-size="20px" fill="#000000" text-anchor="start" style="white-space: pre;" direction="ltr" dominant-baseline="text-before-edge">emit Assigned(msgHash, totalFee);</text></g><g stroke-linecap="round"><g transform="translate(347 44) rotate(0 -1.2133877114579121 26.71832000952214)"><path d="M0.66 0.83 C0.41 9.7, -1.54 44.56, -2.09 53.22 M-0.45 0.21 C-0.82 8.71, -2.54 42.25, -3.09 51.22" stroke="#000000" stroke-width="1" fill="none"></path></g><g transform="translate(347 44) rotate(0 -1.2133877114579121 26.71832000952214)"><path d="M-9.39 25.68 C-8.46 31.15, -7.2 38.54, -2.57 49.29 M-11.71 24.97 C-8.23 34.49, -4.08 44.34, -3.5 50.3" stroke="#000000" stroke-width="1" fill="none"></path></g><g transform="translate(347 44) rotate(0 -1.2133877114579121 26.71832000952214)"><path d="M8.72 26.68 C5.07 32, 1.74 39.14, -2.57 49.29 M6.41 25.97 C3.09 35.1, 0.43 44.58, -3.5 50.3" stroke="#000000" stroke-width="1" fill="none"></path></g></g><mask></mask><g transform="translate(223 174) rotate(0 387.1499938964844 11.5)"><text x="0" y="0" font-family="Helvetica, Segoe UI Emoji" font-size="20px" fill="#000000" text-anchor="start" style="white-space: pre;" direction="ltr" dominant-baseline="text-before-edge">event MessageAccepted(bytes32 indexed msgHash, bytes32 root, Message message);</text></g><g stroke-linecap="round"><g transform="translate(282 36) rotate(0 -1.1969837557524414 63.5353636941593)"><path d="M0.32 -1.13 C-0.3 19.91, -2.27 105.78, -2.72 127.12 M-0.97 0.89 C-1.3 21.98, 0.01 107.07, -0.38 128.2" stroke="#000000" stroke-width="1" fill="none"></path></g><g transform="translate(282 36) rotate(0 -1.1969837557524414 63.5353636941593)"><path d="M-12.54 98.82 C-7.94 110.31, -4.3 121.93, 0.55 126.8 M-11.1 100.05 C-7.47 107.27, -6.47 114.23, 0.24 127.95" stroke="#000000" stroke-width="1" fill="none"></path></g><g transform="translate(282 36) rotate(0 -1.1969837557524414 63.5353636941593)"><path d="M7.99 98.81 C4.65 110.36, 0.36 121.98, 0.55 126.8 M9.43 100.04 C8.07 107.1, 4.08 114.06, 0.24 127.95" stroke="#000000" stroke-width="1" fill="none"></path></g></g><mask></mask><g transform="translate(10 267) rotate(0 486.1499938964844 11.5)"><text x="0" y="0" font-family="Helvetica, Segoe UI Emoji" font-size="20px" fill="#000000" text-anchor="start" style="white-space: pre;" direction="ltr" dominant-baseline="text-before-edge">wait AgregatedBlockData(data) (message root block large than messag accepted message root block number</text></g><g stroke-linecap="round"><g transform="translate(292 206) rotate(0 0.20483884801316776 23.690969077479096)"><path d="M0.15 -0.29 C0.28 7.64, 1.21 39.79, 1.65 47.9 M-1.23 -1.48 C-1.37 6.52, -0.09 40.39, 0.51 48.86" stroke="#000000" stroke-width="1" fill="none"></path></g><g transform="translate(292 206) rotate(0 0.20483884801316776 23.690969077479096)"><path d="M-9.52 25.69 C-7.22 36.02, -2.86 43.97, 2.48 49.2 M-9.15 26.97 C-7.73 32.74, -3.66 37.49, -0.3 49.53" stroke="#000000" stroke-width="1" fill="none"></path></g><g transform="translate(292 206) rotate(0 0.20483884801316776 23.690969077479096)"><path d="M7.23 24.83 C3.26 35.51, 1.35 43.78, 2.48 49.2 M7.6 26.11 C4.88 32.19, 4.81 37.15, -0.3 49.53" stroke="#000000" stroke-width="1" fill="none"></path></g></g><mask></mask><g stroke-linecap="round"><g transform="translate(370 133) rotate(0 -14.613259074222299 61.54122821552679)"><path d="M-0.82 1.05 C-5.83 21.33, -24.45 101.14, -29.49 121.34 M0.94 0.55 C-4.23 21.02, -25.22 102.01, -30.17 122.53" stroke="#000000" stroke-width="1" fill="none"></path></g><g transform="translate(370 133) rotate(0 -14.613259074222299 61.54122821552679)"><path d="M-31.5 93.54 C-33.37 101.29, -30.81 114.98, -29.4 121.45 M-33.75 92.94 C-31.66 101.88, -32.15 110.05, -30.49 123.15" stroke="#000000" stroke-width="1" fill="none"></path></g><g transform="translate(370 133) rotate(0 -14.613259074222299 61.54122821552679)"><path d="M-11.6 98.54 C-20.37 104.42, -24.72 116.37, -29.4 121.45 M-13.85 97.94 C-17.23 105.4, -23.23 112.19, -30.49 123.15" stroke="#000000" stroke-width="1" fill="none"></path></g></g><mask></mask><g transform="translate(283 381) rotate(0 59.516666412353516 11.5)"><text x="0" y="0" font-family="Helvetica, Segoe UI Emoji" font-size="20px" fill="#000000" text-anchor="start" style="white-space: pre;" direction="ltr" dominant-baseline="text-before-edge">function relay</text></g><g stroke-linecap="round"><g transform="translate(316 296) rotate(0 1.0040002049226189 41.14916658921166)"><path d="M0.34 0.23 C0.9 13.71, 2.77 68.11, 2.94 81.64 M-0.93 -0.7 C-0.42 12.9, 2.29 69.13, 2.49 82.99" stroke="#000000" stroke-width="1" fill="none"></path></g><g transform="translate(316 296) rotate(0 1.0040002049226189 41.14916658921166)"><path d="M-8.34 56.73 C-6.13 61.53, -3.46 68.15, 1 81.33 M-8.02 54.76 C-4.85 62.67, -3.33 69.96, 2.43 83.88" stroke="#000000" stroke-width="1" fill="none"></path></g><g transform="translate(316 296) rotate(0 1.0040002049226189 41.14916658921166)"><path d="M12.17 56.04 C8.88 61.08, 6.05 67.89, 1 81.33 M12.49 54.07 C10.34 62.03, 6.55 69.51, 2.43 83.88" stroke="#000000" stroke-width="1" fill="none"></path></g></g><mask></mask><g transform="translate(340 333) rotate(0 70.08333587646484 11.5)"><text x="0" y="0" font-family="Helvetica, Segoe UI Emoji" font-size="20px" fill="#000000" text-anchor="start" style="white-space: pre;" direction="ltr" dominant-baseline="text-before-edge">call target chain</text></g><g transform="translate(283 687) rotate(0 88.96666717529297 11.5)"><text x="0" y="0" font-family="Helvetica, Segoe UI Emoji" font-size="20px" fill="#000000" text-anchor="start" style="white-space: pre;" direction="ltr" dominant-baseline="text-before-edge">function setDstPrice</text></g><g stroke-linecap="round"><g transform="translate(296 638) rotate(0 1.738882826641202 23.723120969068248)"><path d="M-0.69 1.14 C0.19 8.74, 3.48 37.92, 4.17 45.48 M1.15 0.7 C2.07 8.46, 3.54 39.46, 3.83 46.75" stroke="#000000" stroke-width="1" fill="none"></path></g><g transform="translate(296 638) rotate(0 1.738882826641202 23.723120969068248)"><path d="M-3.12 27.41 C-4.07 30.62, -0.55 32.64, 2.38 45.73 M-5.39 26.01 C-2.4 31.32, 0.81 37.92, 3.41 47.57" stroke="#000000" stroke-width="1" fill="none"></path></g><g transform="translate(296 638) rotate(0 1.738882826641202 23.723120969068248)"><path d="M12.63 26.7 C8.42 29.96, 8.69 32.13, 2.38 45.73 M10.36 25.29 C8.52 30.95, 6.9 37.77, 3.41 47.57" stroke="#000000" stroke-width="1" fill="none"></path></g></g><mask></mask><g transform="translate(188 781) rotate(0 367.1499938964844 11.5)"><text x="0" y="0" font-family="Helvetica, Segoe UI Emoji" font-size="20px" fill="#000000" text-anchor="start" style="white-space: pre;" direction="ltr" dominant-baseline="text-before-edge">function fee(uint256 toChainId, address, /*ua*/ uint256 size, bytes calldata params)</text></g></svg>
